<svg xmlns="http://www.w3.org/2000/svg" viewBox="0 0 180 180" fill="none">
  <defs>
    <linearGradient id="bgGrad" x1="0%" y1="0%" x2="100%" y2="100%">
      <stop offset="0%" style="stop-color:#6366f1"/>
      <stop offset="100%" style="stop-color:#8b5cf6"/>
    </linearGradient>
    <linearGradient id="sparkGrad" x1="0%" y1="0%" x2="100%" y2="100%">
      <stop offset="0%" style="stop-color:#fbbf24"/>
      <stop offset="100%" style="stop-color:#f59e0b"/>
    </linearGradient>
  </defs>
  <!-- Background rounded square -->
  <rect x="10" y="10" width="160" height="160" rx="32" fill="url(#bgGrad)"/>
  <!-- Sparkles/AI icon -->
  <path d="M90 34L98.5 59.5L124 68L98.5 76.5L90 102L81.5 76.5L56 68L81.5 59.5L90 34Z" fill="url(#sparkGrad)"/>
  <path d="M130 102L136 116.5L150.5 122.5L136 128.5L130 143L124 128.5L109.5 122.5L124 116.5L130 102Z" fill="url(#sparkGrad)" opacity="0.8"/>
  <path d="M50 102L54.5 113L65.5 117.5L54.5 122L50 133L45.5 122L34.5 117.5L45.5 113L50 102Z" fill="url(#sparkGrad)" opacity="0.6"/>
</svg>
