<svg xmlns="http://www.w3.org/2000/svg" viewBox="0 0 32 32" fill="none">
  <defs>
    <linearGradient id="bgGrad" x1="0%" y1="0%" x2="100%" y2="100%">
      <stop offset="0%" style="stop-color:#6366f1"/>
      <stop offset="100%" style="stop-color:#8b5cf6"/>
    </linearGradient>
    <linearGradient id="sparkGrad" x1="0%" y1="0%" x2="100%" y2="100%">
      <stop offset="0%" style="stop-color:#fbbf24"/>
      <stop offset="100%" style="stop-color:#f59e0b"/>
    </linearGradient>
  </defs>
  <!-- Background rounded square -->
  <rect x="2" y="2" width="28" height="28" rx="6" fill="url(#bgGrad)"/>
  <!-- Sparkles/AI icon -->
  <path d="M16 6L17.5 10.5L22 12L17.5 13.5L16 18L14.5 13.5L10 12L14.5 10.5L16 6Z" fill="url(#sparkGrad)"/>
  <path d="M22 18L23 20.5L25.5 21.5L23 22.5L22 25L21 22.5L18.5 21.5L21 20.5L22 18Z" fill="url(#sparkGrad)" opacity="0.8"/>
  <path d="M10 18L10.75 20L12.75 20.75L10.75 21.5L10 23.5L9.25 21.5L7.25 20.75L9.25 20L10 18Z" fill="url(#sparkGrad)" opacity="0.6"/>
</svg>
